<?xml version="1.0" encoding="UTF-8"?>
<svg id="Layer_2" data-name="Layer 2" xmlns="http://www.w3.org/2000/svg" viewBox="0 0 65.13 12.86">
  <defs>
    <style>
      .cls-1 {
        fill: #209346;
      }
    </style>
  </defs>
  <g id="Layer_1-2" data-name="Layer 1">
    <g>
      <path class="cls-1" d="M0,.62h7.81c-.16.84-.32,1.66-.46,2.49-.03.2-.14.19-.28.19-.83,0-1.66,0-2.49,0-.27,0-.38.05-.36.35.02.54.02,1.08,0,1.61,0,.26.06.35.33.34.74-.02,1.48,0,2.22-.01.19,0,.24.04.2.24-.15.73-.29,1.47-.42,2.21-.03.21-.12.25-.31.24-.56,0-1.12.01-1.68-.01-.29-.01-.35.09-.35.36.01,1.24,0,2.49.01,3.73,0,.27-.05.37-.35.36-.86-.02-1.73-.02-2.59,0-.32,0-.36-.1-.36-.38,0-3.02,0-6.03,0-9.05,0-.25-.04-.48-.14-.72-.26-.64-.52-1.28-.79-1.97Z"/>
      <path class="cls-1" d="M61.21,9.32c.21-1.43.42-2.85.63-4.26.09-.61.19-1.22.26-1.83.02-.18.1-.22.26-.22.85,0,1.71,0,2.56,0,.22,0,.24.08.19.26-.73,3.05-1.45,6.1-2.17,9.15-.05.21-.13.27-.34.27-1,0-2,0-3,0-.22,0-.31-.07-.36-.29-.7-3.03-1.41-6.07-2.13-9.1-.05-.23-.02-.31.24-.31.84.01,1.68.01,2.53,0,.22,0,.3.06.34.29.28,1.91.57,3.81.86,5.72.01.1.02.2.11.3Z"/>
      <path class="cls-1" d="M19.02,4.34c.06-.11.09-.17.12-.22.48-1.08,1.38-1.34,2.41-1.22.14.02.19.09.19.22,0,.83,0,1.66,0,2.49,0,.22-.15.18-.28.19-.68.03-1.36.1-2.03.24-.24.05-.3.15-.3.38,0,1.97,0,3.95.01,5.92,0,.3-.08.38-.37.37-.8-.02-1.59-.01-2.39,0-.22,0-.28-.07-.28-.29,0-3.04,0-6.08,0-9.11,0-.21.05-.29.28-.29.68.01,1.37.01,2.05,0,.19,0,.28.05.32.25.07.35.17.69.28,1.08Z"/>
      <path class="cls-1" d="M48.87,5.3c-.04-.8-.16-1.58-.44-2.34-.4-1.07-1.13-1.78-2.24-2.09-.63-.18-1.27-.26-1.93-.26-1.31,0-2.63,0-3.94,0-.38,0-.76,0-1.19,0,.27.68.53,1.32.79,1.96.1.24.15.48.15.75,0,1.59,0,3.19,0,4.78,0,1.45,0,2.89,0,4.34,0,.14-.05.3.2.29,1.65-.04,3.3.09,4.94-.07,1.75-.17,2.81-1.05,3.3-2.75.43-1.51.45-3.05.36-4.6ZM45.2,8.63c-.04.24-.11.48-.22.7-.26.55-.92.84-1.5.7-.19-.05-.12-.19-.12-.3,0-1.03,0-2.06,0-3.09,0-1.02,0-2.04,0-3.06,0-.21.05-.31.28-.29.21.02.42,0,.64.04.44.08.72.34.86.76.09.28.15.56.17.85.09,1.23.12,2.46-.09,3.68Z"/>
      <path class="cls-1" d="M30.42.27c0-.22-.05-.3-.29-.26-.82.14-1.64.27-2.46.37-.26.03-.31.13-.3.36.01.58,0,1.17,0,1.75q0,.66-.63.5c-2.1-.51-3.62.4-4.14,2.48-.25,1.01-.29,2.04-.24,3.07.04.95.16,1.9.6,2.77.4.81,1.02,1.35,1.94,1.49,1,.15,1.89-.1,2.67-.84.05.15.11.26.13.38.05.29.22.36.5.35.64-.02,1.28-.01,1.92,0,.21,0,.3-.06.3-.28,0-4.05,0-8.1,0-12.15ZM27.35,10.24c-.2.15-.44.21-.68.26-.47.1-.84-.11-1-.58-.12-.35-.16-.72-.16-1.09,0,0,0,0,0,0-.08-.53-.08-1.05,0-1.58,0-.36.03-.71.12-1.06.19-.83.67-1.13,1.5-.93.08.02.15.04.23.05.08.09.07.21.07.32,0,1.43,0,2.86,0,4.28,0,.11.02.23-.06.32Z"/>
      <path class="cls-1" d="M14.88,5.35c-.01-1.12-.62-1.91-1.66-2.23-.22-.07-.46-.12-.69-.16-1.39-.22-2.75.04-4.1.33-.2.04-.18.16-.18.3,0,.59.01,1.19,0,1.78-.01.3.1.3.33.22.75-.26,1.52-.38,2.31-.34.71.04.97.3.97,1,0,.12-.02.25,0,.37.05.31-.07.4-.38.38-.82-.04-1.63.04-2.4.39-.91.41-1.46,1.09-1.58,2.1-.05.4-.03.81.05,1.2.25,1.32,1.37,2.23,2.69,2.15.7-.04,1.29-.34,1.79-.84.12.14.13.3.17.45.04.17.12.24.3.23.72,0,1.44,0,2.15,0,.19,0,.25-.07.25-.25,0-2.37,0-4.73-.01-7.1ZM11.85,9.54c0,.16,0,.31,0,.47,0,.47-.39.74-.83.58-.36-.13-.55-.41-.58-.78-.04-.41.06-.75.45-.96.04-.02.08-.04.12-.06.65-.28.84-.16.84.52v.23Z"/>
      <path class="cls-1" d="M38.79,5.37c0-.93-.4-1.67-1.27-2.09-.35-.17-.71-.26-1.09-.32-1.39-.22-2.75.04-4.1.33-.2.04-.17.18-.17.31,0,.59,0,1.19,0,1.78,0,.26.07.3.31.21.75-.26,1.52-.38,2.31-.34.73.04.99.3.99,1.02,0,.11-.01.23,0,.34.05.32-.05.43-.39.41-.77-.04-1.52.03-2.24.33-.82.34-1.43.88-1.65,1.77-.13.53-.13,1.07-.02,1.6.29,1.49,1.68,2.42,3.13,2.08.52-.12.97-.39,1.37-.8.05.16.11.27.12.39.03.28.18.33.43.32.67-.01,1.35-.01,2.02,0,.2,0,.27-.06.27-.27,0-2.35,0-4.71-.01-7.06ZM35.77,9.33c0,.07,0,.13,0,.2,0,.16,0,.31,0,.47,0,.5-.42.77-.89.57-.33-.14-.49-.41-.53-.76-.04-.38.03-.71.39-.93.05-.03.1-.05.15-.08.26-.12.57-.22.81-.1.18.1.05.41.07.62Z"/>
      <path class="cls-1" d="M56.84,5.46c-.26-1.28-.94-2.19-2.29-2.48-.45-.1-.91-.11-1.37-.09-1.75.05-2.87.91-3.32,2.6-.4,1.49-.4,3-.06,4.5.33,1.46,1.2,2.43,2.72,2.73,1.29.26,2.57.13,3.84-.11.19-.04.2-.13.2-.28,0-.59,0-1.19,0-1.78,0-.21-.06-.27-.27-.22-.67.15-1.35.23-2.04.12-.91-.14-1.24-.46-1.42-1.36-.05-.25.03-.31.26-.31.57.01,1.14,0,1.72,0,.58,0,1.17,0,1.75,0,.19,0,.27-.05.3-.26.13-1.03.18-2.06-.03-3.08ZM53.98,6.92c-.17,0-.34,0-.5,0q-.74,0-.61-.75c.05-.28.11-.55.26-.79.11-.18.26-.3.5-.27.22.03.32.19.38.37.14.41.14.83.15,1.26,0,.13-.05.18-.18.18Z"/>
    </g>
  </g>
</svg>