<?xml version="1.0" encoding="UTF-8"?>
<svg version="1.1" xmlns="http://www.w3.org/2000/svg" width="256" height="256">
<path d="M0 0 C19.307974 -0.07044658 38.61592149 -0.12316121 57.92399788 -0.15543652 C66.89143322 -0.17082862 75.85878818 -0.19176938 84.82617188 -0.22631836 C92.6528075 -0.25645766 100.47938483 -0.27563044 108.30607688 -0.28226548 C112.44057626 -0.28613675 116.57490905 -0.29506948 120.7093544 -0.31719017 C157.22622216 -0.50470362 196.44198347 1.09498614 224.62109375 27.46484375 C239.45387993 43.27186876 245.8466232 63.9822076 249 85 C249.17136475 86.125271 249.34272949 87.25054199 249.51928711 88.40991211 C250.99057884 98.94661937 251.36003381 109.30685562 251.3125 119.9375 C251.31067719 120.78761658 251.30885437 121.63773315 251.30697632 122.51361084 C251.17959561 157.95864152 246.82473817 196.89306559 221.36328125 223.76171875 C210.67164538 233.88784661 197.9222933 240.10336134 183.9375 244.25 C182.78145264 244.60118896 182.78145264 244.60118896 181.60205078 244.95947266 C162.6550878 250.22776314 143.34009543 250.42698591 123.82187438 250.30418181 C120.26255984 250.28509856 116.70323293 250.2836402 113.14387512 250.28010559 C106.44025949 250.27087612 99.73679516 250.2463893 93.03324538 250.21605712 C85.38600886 250.18222509 77.73876412 250.16595563 70.09147108 250.15097082 C54.39422722 250.11982861 38.69713331 250.06725063 23 250 C23.02268857 248.48379625 23.02268857 248.48379625 23.04583549 246.93696213 C23.41198294 222.12000266 23.64606538 197.30432513 23.74871635 172.48484421 C23.80129172 160.48095052 23.89378141 148.4800628 24.08691406 136.47753906 C24.25552629 125.99212483 24.34245906 115.50943205 24.33897984 105.02261662 C24.33979526 99.48978618 24.37624896 93.96340841 24.51125717 88.43209076 C25.28270249 55.31170078 18.08357652 31.91352 0.81927598 3.58171773 C0 2 0 2 0 0 Z " fill="#2ECC71" transform="translate(3,3)"/>
<path d="M0 0 C40.92 0 81.84 0 124 0 C121.60318029 14.38091829 119.00348555 28.73344365 116 43 C99.83 43 83.66 43 67 43 C67 54.88 67 66.76 67 79 C81.52 79 96.04 79 111 79 C109.64398076 88.4921347 108.19683727 97.84250515 106.4375 107.25 C106.21642578 108.45785156 105.99535156 109.66570312 105.76757812 110.91015625 C105.55423828 112.05871094 105.34089844 113.20726562 105.12109375 114.390625 C104.9295874 115.42219727 104.73808105 116.45376953 104.54077148 117.51660156 C104 120 104 120 103 122 C91.12 122 79.24 122 67 122 C67 145.1 67 168.2 67 192 C49.84 192 32.68 192 15 192 C15.04302246 187.45758545 15.08604492 182.9151709 15.13037109 178.23510742 C15.26335351 163.08804852 15.31802624 147.94141459 15.33421898 132.79380322 C15.34587226 123.6254506 15.38274198 114.45861503 15.48339844 105.29077148 C15.57127229 97.28090343 15.60733577 89.27258473 15.58627188 81.26223832 C15.57683722 77.03722224 15.58986251 72.81553764 15.66541672 68.59111595 C16.07544177 44.41247103 11.62899495 25.62539507 1.25998878 3.73064137 C0 1 0 1 0 0 Z " fill="#FEFEFE" transform="translate(64,34)"/>
</svg>
