<?xml version="1.0" encoding="UTF-8"?>
<svg id="Layer_2" data-name="Layer 2" xmlns="http://www.w3.org/2000/svg" viewBox="0 0 104.23 16.76">
  <defs>
    <style>
      .cls-1 {
        fill: #369746;
      }
    </style>
  </defs>
  <g id="Layer_1-2" data-name="Layer 1">
    <g>
      <path class="cls-1" d="M.19,0h1.77c.1,0,.19.08.19.19v12.54c0,.11-.09.19-.19.19H.19c-.11,0-.19-.09-.19-.19V.19c0-.1.08-.19.19-.19Z"/>
      <path class="cls-1" d="M8.42,4.69h-3.04c-.13,0-.19.06-.19.19v1.52c0,.13.06.19.19.19h2.28c1.29,0,1.94.56,1.94,1.67v1.27c0,.28-.02.51-.05.7-.03.19-.1.34-.21.46-.11.12-.26.21-.47.26-.2.05-.47.08-.82.08h-3.53c-.13,0-.19.06-.19.19v1.5c0,.13.06.19.19.19h4.41c.48,0,.9-.05,1.25-.15.35-.1.65-.28.87-.53.23-.25.4-.59.51-1,.11-.41.17-.93.17-1.57v-1.58c0-1.17-.3-2.02-.9-2.57s-1.41-.83-2.42-.83Z"/>
      <path class="cls-1" d="M23.37,1.12h1.82c.1,0,.19.08.19.19v1.63c0,.1-.08.19-.19.19h-1.82c-.11,0-.19-.09-.19-.19v-1.63c0-.11.09-.19.19-.19Z"/>
      <path class="cls-1" d="M27.08,5.64c-.35-.33-.76-.57-1.25-.72s-1-.23-1.56-.23c-.52,0-1.02.08-1.49.23-.48.15-.89.39-1.25.72-.36.33-.65.77-.85,1.31s-.31,1.2-.31,1.98c0,.86.15,1.56.44,2.11h-1.8s-.03,0-.05,0c-.02,0-.03,0-.05,0h-.32c-.48,0-.86-.1-1.15-.3-.29-.2-.43-.49-.43-.87v-4.64c0-.13-.06-.19-.19-.19h-1.77c-.13,0-.19.06-.19.19v6.78c0,.46,0,.86-.03,1.21-.02.35-.08.65-.17.89-.1.25-.24.43-.45.56-.2.13-.49.19-.85.19h-.42c-.13,0-.19.06-.19.19v1.52c0,.13.06.19.19.19h.7c.63,0,1.17-.08,1.6-.26.43-.17.78-.43,1.04-.77.26-.34.45-.77.56-1.28.11-.51.17-1.11.17-1.79v-.36c.22.27.48.44.79.51.31.08.68.11,1.11.11.02,0,.03,0,.05,0,.02,0,.03,0,.05,0h5.28c.58,0,1.11-.07,1.6-.2s.89-.36,1.24-.67.61-.73.8-1.24c.19-.51.29-1.13.29-1.88s-.1-1.43-.29-1.98-.47-.98-.82-1.31ZM25.65,10.57c-.29.32-.75.48-1.37.48s-1.06-.17-1.35-.5c-.29-.34-.44-.92-.44-1.76,0-.7.15-1.24.46-1.62.3-.39.75-.58,1.33-.58,1.2,0,1.8.77,1.8,2.3,0,.8-.15,1.36-.44,1.68Z"/>
      <rect class="cls-1" x="32.59" y="7.14" width="1.06" height="1.12" rx=".12" ry=".12"/>
      <path class="cls-1" d="M35.41,8.56h-.77c-.08,0-.12.04-.12.12v3.5c0,.59-.16,1.02-.49,1.28-.33.26-.75.4-1.26.4-.21,0-.42-.03-.64-.08s-.42-.15-.6-.28c-.18-.13-.33-.31-.45-.54-.12-.23-.17-.51-.17-.86s.07-.7.2-1.03.27-.6.41-.83c.04-.06.03-.12-.04-.16l-.66-.36c-.08-.05-.14-.04-.17.01-.21.3-.39.66-.55,1.1-.16.44-.23.89-.23,1.36,0,.42.07.8.2,1.12.14.32.33.6.57.82.24.22.54.39.89.51.35.12.74.17,1.17.17.91,0,1.61-.23,2.09-.7.48-.46.73-1.11.73-1.93v-3.52c0-.08-.04-.12-.12-.12Z"/>
      <path class="cls-1" d="M42.17,7.08c.06.03.11.02.16-.04l2.63-3.1c.03-.06.02-.12-.05-.17l-.58-.48c-.06-.03-.11-.02-.16.04l-2.63,3.1c-.03.07-.02.13.05.17l.58.48Z"/>
      <path class="cls-1" d="M45.11,7.52h-1.07l2.16-2.53c.03-.06.02-.12-.05-.17l-.58-.48c-.06-.03-.11-.02-.16.04l-2.63,3.1s-.04.04-.07.08c-.03.04-.04.07-.04.11v.67c0,.08.04.12.12.12h1.93c.91,0,1.37.4,1.37,1.21v.74c0,.21-.01.38-.04.52-.02.14-.07.25-.14.33s-.18.14-.31.18c-.14.04-.32.05-.54.05h-4.48s0,0,0,0c0,0,0,0,0,0h-1.32s0,0,0,0c0,0,0,0,0,0h-.53c-.2,0-.35-.05-.44-.14-.09-.09-.14-.26-.14-.5v-6.47c0-.08-.04-.12-.12-.12h-.77c-.08,0-.12.04-.12.12v6.53c0,.52.11.9.32,1.15.21.24.58.37,1.08.37h.71s0,0,0,0c0,0,0,0,0,0h1.32s0,0,0,0c0,0,0,0,0,0h4.85c.3,0,.56-.03.78-.1.22-.06.39-.17.53-.33s.24-.37.31-.63c.07-.26.1-.6.1-1v-.72c0-.74-.19-1.28-.58-1.62-.38-.34-.88-.52-1.49-.52Z"/>
      <rect class="cls-1" x="56.97" y="5.22" width="1.06" height="1.12" rx=".12" ry=".12"/>
      <path class="cls-1" d="M65.09,8.14c-.23-.3-.53-.54-.92-.72-.38-.18-.88-.28-1.48-.28-.39,0-.8.06-1.22.17s-.81.29-1.18.53c-.05.03-.05.09,0,.18l.34.56s.04.04.07.03c.03-.01.06-.03.1-.04.32-.18.63-.31.92-.38s.58-.11.85-.11c.38,0,.71.06.97.17.26.12.48.27.64.47s.27.42.34.68c.07.26.1.52.1.79s-.01.48-.04.65-.07.3-.14.4c-.07.1-.18.16-.31.2s-.32.06-.54.06h-.16c.11-.24.17-.52.17-.84,0-.29-.04-.54-.12-.75-.08-.21-.19-.39-.34-.53-.14-.14-.31-.25-.5-.32-.19-.07-.4-.11-.61-.11-.45,0-.82.14-1.12.43-.3.29-.45.72-.45,1.28,0,.32.06.6.17.84h-1.55c-.33,0-.59-.07-.79-.2-.2-.14-.29-.34-.29-.61v-3.04c0-.08-.04-.12-.12-.12h-.77c-.08,0-.12.04-.12.12v3.22c0,.24-.05.41-.14.5-.09.09-.24.14-.44.14h-.76s-.03,0-.04,0c-.02,0-.03,0-.04,0h-1.32s0,0,0,0c0,0,0,0,0,0h-.13c-.33,0-.59-.07-.79-.2-.2-.14-.29-.34-.29-.61v-1.24c0-.74-.19-1.28-.58-1.62-.38-.34-.88-.52-1.49-.52h-1.76c-.08,0-.12.04-.12.12v.7c0,.08.04.12.12.12h1.39c.91,0,1.37.4,1.37,1.21v.96c0,.21-.01.38-.04.52-.02.14-.07.25-.14.33-.07.08-.18.14-.31.18s-.32.05-.54.05h-2.29c-.08,0-.12.04-.12.12v.7c0,.08.04.12.12.12h2.66c.38,0,.7-.05.94-.15.24-.1.43-.28.56-.55.09.23.24.41.46.52s.46.17.73.17h.25s0,0,0,0c0,0,0,0,0,0h1.32s.03,0,.04,0c.02,0,.03,0,.04,0h.94c.63,0,1.05-.21,1.25-.62.1.21.25.36.44.47.19.1.42.16.67.16h5c.3,0,.56-.03.78-.1.22-.07.39-.19.53-.36.14-.17.24-.4.31-.69s.1-.65.1-1.09c0-.35-.04-.71-.13-1.07-.09-.36-.25-.69-.47-.98ZM62.56,11.27c-.1.13-.26.21-.47.22h-.13c-.2-.02-.36-.09-.47-.22-.11-.13-.17-.34-.17-.62s.06-.48.19-.63c.12-.15.3-.22.52-.22s.39.07.51.22c.12.15.17.36.17.63s-.05.49-.16.62Z"/>
      <path class="cls-1" d="M69.49,7.31h-1.76c-.08,0-.12.04-.12.12v.7c0,.08.04.12.12.12h1.39c.91,0,1.37.4,1.37,1.21v.96c0,.21-.01.38-.04.52-.02.14-.07.25-.14.33-.07.08-.18.14-.31.18s-.32.05-.54.05h-2.29c-.08,0-.12.04-.12.12v.7c0,.08.04.12.12.12h2.66c.3,0,.56-.03.78-.1.22-.06.39-.17.53-.33.14-.16.24-.37.31-.63.07-.26.1-.6.1-1v-.94c0-.74-.19-1.28-.58-1.62-.38-.34-.88-.52-1.49-.52Z"/>
      <path class="cls-1" d="M94.08,7.52h-.77c-.08,0-.12.04-.12.12v3.22c0,.24-.05.41-.14.5s-.24.14-.44.14h-.3c-.32,0-.58-.07-.77-.2-.19-.14-.29-.34-.29-.61v-2c0-.08-.04-.12-.12-.12h-.77c-.08,0-.12.04-.12.12v2.18c0,.24-.05.41-.14.5s-.24.14-.44.14h-.3c-.32,0-.58-.07-.77-.2-.19-.14-.29-.34-.29-.61v-2c0-.08-.04-.12-.12-.12h-.77c-.08,0-.12.04-.12.12v2.18c0,.24-.05.41-.14.5s-.24.14-.44.14h-3.07c-.06,0-.12,0-.17-.02.16-.1.32-.22.49-.38s.31-.33.44-.53c.13-.2.24-.41.32-.65.08-.24.13-.48.13-.74,0-.58-.2-1.03-.61-1.37s-1.04-.5-1.9-.5c-.27,0-.53.02-.78.06-.25.04-.47.09-.68.16-.2.06-.38.13-.54.2-.16.07-.28.14-.38.19-.08.05-.12.13-.12.24v.72s.01.08.03.11c.02.04.07.08.14.13.18.13.35.26.52.38s.33.28.47.45c.14.17.27.37.38.59.11.22.19.5.26.82-.23.06-.43.1-.61.11s-.31.02-.41.02h-2.08c-.2,0-.35-.05-.44-.14s-.14-.26-.14-.5v-4.07c0-.08-.04-.12-.12-.12h-.77c-.08,0-.12.04-.12.12v.52h-1.18c-.3,0-.58.04-.86.13-.28.08-.52.22-.73.41-.21.19-.38.43-.5.74-.13.3-.19.68-.19,1.13,0,.38.06.7.17.98.11.28.27.5.46.68.2.18.43.31.7.4.27.09.56.13.87.13.26,0,.51-.04.73-.11.22-.07.42-.18.58-.32.07.34.22.59.44.74.22.15.53.22.92.22h2.34c.23,0,.5-.03.79-.08.3-.05.58-.15.84-.29.23.14.48.24.74.29.26.05.53.08.82.08h2.99c.63,0,1.05-.21,1.25-.62.1.21.25.36.44.47.19.1.42.16.67.16h.58c.63,0,1.05-.21,1.25-.62.1.21.25.36.44.47.19.1.42.16.67.16h.58c.5,0,.86-.12,1.08-.37s.32-.63.32-1.15v-3.28c0-.08-.04-.12-.12-.12ZM76.99,9.44c0,.48-.09.85-.28,1.12-.19.27-.51.4-.97.4-.38,0-.68-.11-.89-.32s-.31-.53-.31-.94c0-.55.12-.93.35-1.15.24-.21.54-.32.92-.32h1.18v1.2ZM83.03,10.71c-.14.12-.28.23-.41.31-.14-.58-.36-1.07-.67-1.49-.31-.42-.67-.74-1.07-.97.09-.06.27-.12.54-.2.27-.08.59-.11.95-.11.2,0,.39.02.57.05.18.03.33.09.46.16.13.08.23.18.31.31s.11.29.11.49-.04.38-.11.56-.17.34-.29.49c-.12.15-.25.28-.39.41Z"/>
      <rect class="cls-1" x="103.17" y="5.22" width="1.06" height="1.12" rx=".12" ry=".12"/>
      <path class="cls-1" d="M101.83,5.22h.82c.07,0,.12.05.12.12v.88c0,.07-.05.12-.12.12h-.82c-.07,0-.12-.05-.12-.12v-.88c0-.07.05-.12.12-.12Z"/>
      <path class="cls-1" d="M103.35,7.52h-.77c-.08,0-.12.04-.12.12v3.22c0,.24-.05.41-.14.5s-.24.14-.44.14h-.83s0,0,0,0,0,0,0,0h-.83v-1.57c0-.92-.2-1.59-.6-2-.4-.41-.96-.62-1.67-.62-.31,0-.61.05-.89.16s-.53.27-.74.49-.38.5-.5.84-.19.74-.19,1.19.05.84.16,1.15c.1.31.26.56.46.75.2.19.44.32.73.41s.6.13.95.13h1.28v.31c0,.22-.03.41-.08.56-.06.15-.13.26-.23.35s-.22.14-.35.18c-.14.04-.28.05-.44.05h-1.44c-.08,0-.12.04-.12.12v.7c0,.08.04.12.12.12h1.49c.31,0,.6-.04.85-.12.26-.08.47-.2.65-.37.18-.17.32-.38.42-.65.1-.26.15-.58.15-.96v-.29h.83s0,0,0,0,0,0,0,0h1.01c.5,0,.86-.12,1.08-.37s.32-.63.32-1.15v-3.28c0-.08-.04-.12-.12-.12ZM99.21,11.5h-1.21c-.45,0-.79-.11-1.01-.32-.23-.22-.34-.61-.34-1.18,0-.53.12-.95.35-1.27.24-.32.55-.48.95-.48.45,0,.77.15.97.44.2.3.29.71.29,1.24v1.57Z"/>
    </g>
  </g>
</svg>